<svg xmlns="http://www.w3.org/2000/svg" version="1.1" xmlns:xlink="http://www.w3.org/1999/xlink" xmlns:svgjs="http://svgjs.dev/svgjs" width="2000" height="555" viewBox="0 0 2000 555"><g transform="matrix(1,0,0,1,-1.2121212121212466,-0.5858876857215023)"><svg viewBox="0 0 396 110" data-background-color="#ffffff" preserveAspectRatio="xMidYMid meet" height="555" width="2000" xmlns="http://www.w3.org/2000/svg" xmlns:xlink="http://www.w3.org/1999/xlink"><g id="tight-bounds" transform="matrix(1,0,0,1,0.2400000000000091,0.11612188365651832)"><svg viewBox="0 0 395.52 109.76775623268698" height="109.76775623268698" width="395.52"><g><svg viewBox="0 0 395.52 109.76775623268698" height="109.76775623268698" width="395.52"><g><svg viewBox="0 0 395.52 109.76775623268698" height="109.76775623268698" width="395.52"><g id="textblocktransform"><svg viewBox="0 0 395.52 109.76775623268698" height="109.76775623268698" width="395.52" id="textblock"><g><svg viewBox="0 0 395.52 109.76775623268698" height="109.76775623268698" width="395.52"><g transform="matrix(1,0,0,1,0,0)"><svg width="395.52" viewBox="2.61 -37.55 141.01 39.14" height="109.76775623268698" data-palette-color="#48d861"><path d="M2.76-26.68L2.78-30.22 2.66-36.65Q2.69-36.65 2.83-36.57L2.83-36.57Q21.39-36.89 30.79-36.91L30.79-36.91Q30.88-36.87 30.93-36.77L30.93-36.77 30.93-29.88Q30.93-28.88 30.88-28.25L30.88-28.25Q30.76-27.86 29.44-27.86L29.44-27.86 29.27-27.86Q23.36-27.86 16.97-28.05L16.97-28.05Q16.97-27.83 16.91-27.27 16.85-26.71 16.82-26.46L16.82-26.46 16.7-25.54Q16.58-24.61 16.53-22.31L16.53-22.31 24.1-22.49Q26.05-22.53 26.93-22.53L26.93-22.53 27.32-22.53Q28.81-22.53 29.27-22.45 29.74-22.36 29.74-21.95L29.74-21.95 29.71-21.75 29.71-21.17 29.83-14.89 29.81-14.87 29.81-14.89Q22.39-14.53 17.94-14.53L17.94-14.53 16.8-14.53 16.8-8.62 30.05-9.03Q31.15-9.03 31.45-8.72L31.45-8.72Q31.42-8.08 31.42-6.91L31.42-6.91 31.59-0.27Q31.59 0.34 31.05 0.44L31.05 0.44 22.95 0.37Q20.56 0.37 13.43 0.54L13.43 0.54 9.42 0.63Q5.18 0.78 3.13 0.78L3.13 0.78 3.05 0.73 3.08 0.73Q2.83 0.49 2.61 0.27L2.61 0.27 2.61-0.59 2.76-26.68ZM71.6-17.09L71.6-17.09 71.58-15.45 71.58-6.42 71.63-2.12 71.63-0.9 71.65 0.24Q71.51 0.44 70.46 0.44L70.46 0.44 69.82 0.44 62.16 0.54Q57.27 0.54 54.88 0.51L54.88 0.51Q54.51 0.12 52.22-6.59L52.22-6.59 47.56-18.97 46.68-18.85 46.65-16.36 46.65-9.74 46.75-3.13 46.75-0.39Q46.75 0.71 46.26 0.76L46.26 0.76Q43.85 0.68 41.65 0.68L41.65 0.68 40.89 0.68 37.2 0.78 36.72 0.78 34.96 0.83 34.89 0.78Q34.08 0.02 34.08-0.32L34.08-0.32 34.08-0.76 34.1-1.25 34.23-10.77Q34.23-26.44 34.52-34.47L34.52-34.47 34.57-36.5Q34.57-36.72 51.39-36.89L51.39-36.89Q51.54-36.79 51.83-35.82L51.83-35.82 51.83-35.89 51.98-35.4Q53.78-30.22 56.37-23.52 58.96-16.82 59.01-16.67L59.01-16.67 59.84-16.72 59.93-36.62Q59.93-36.82 63.5-36.82L63.5-36.82 69.63-36.69 71.43-36.69Q71.6-28.61 71.6-17.09ZM75.24-19.46L75.24-19.46Q75.83-25.02 77.19-27.83L77.19-27.83Q79.8-33.25 84.98-35.52L84.98-35.52Q89.59-37.55 95.01-37.55L95.01-37.55Q104.1-37.55 108.27-32.57L108.27-32.57Q110.79-29.61 111.18-25.22L111.18-25.22 111.4-22.92Q110.98-22.53 106.15-22.53L106.15-22.53 102.27-22.58 101.95-22.58 99.82-22.63 99.24-22.61 98.75-22.61Q98.07-22.61 97.71-24.61 97.36-26.61 96.64-27.26 95.92-27.91 94.97-27.91 94.01-27.91 93.29-27.56 92.57-27.22 92.11-26.75 91.65-26.27 91.33-25.39L91.33-25.39Q90.74-23.88 90.62-22.18 90.5-20.48 90.5-18.38L90.5-18.38 90.5-17.8 90.4-15.33Q90.4-8.59 94.21-8.45L94.21-8.45Q95.19-8.45 95.58-8.79L95.58-8.79Q96.63-9.72 97.41-12.52L97.41-12.52Q97.58-13.11 97.82-13.48L97.82-13.48 98.75-13.48 99.87-13.45 103.83-13.45 105.02-13.48 107.34-13.45 108.76-13.45 110.2-13.43 111.18-13.43Q111.47-13.4 111.59-12.92L111.59-12.92 111.52-12.11Q111.3-9.23 110.18-6.88L110.18-6.88Q108.1-2.59 103.64-0.5 99.19 1.59 93.87 1.59L93.87 1.59Q84.57 1.59 79.9-3.91 75.24-9.4 75.24-19.46ZM114.79-26.68L114.81-30.22 114.69-36.65Q114.71-36.65 114.86-36.57L114.86-36.57Q133.42-36.89 142.81-36.91L142.81-36.91Q142.91-36.87 142.96-36.77L142.96-36.77 142.96-29.88Q142.96-28.88 142.91-28.25L142.91-28.25Q142.79-27.86 141.47-27.86L141.47-27.86 141.3-27.86Q135.39-27.86 129-28.05L129-28.05Q129-27.83 128.94-27.27 128.87-26.71 128.85-26.46L128.85-26.46 128.73-25.54Q128.61-24.61 128.56-22.31L128.56-22.31 136.13-22.49Q138.08-22.53 138.96-22.53L138.96-22.53 139.35-22.53Q140.84-22.53 141.3-22.45 141.76-22.36 141.76-21.95L141.76-21.95 141.74-21.75 141.74-21.17 141.86-14.89 141.84-14.87 141.84-14.89Q134.42-14.53 129.97-14.53L129.97-14.53 128.83-14.53 128.83-8.62 142.08-9.03Q143.18-9.03 143.47-8.72L143.47-8.72Q143.45-8.08 143.45-6.91L143.45-6.91 143.62-0.27Q143.62 0.34 143.08 0.44L143.08 0.44 134.98 0.37Q132.59 0.37 125.46 0.54L125.46 0.54 121.45 0.63Q117.2 0.78 115.15 0.78L115.15 0.78 115.08 0.73 115.1 0.73Q114.86 0.49 114.64 0.27L114.64 0.27 114.64-0.59 114.79-26.68Z" opacity="1" transform="matrix(1,0,0,1,0,0)" fill="#ffffff" class="wordmark-text-0" data-fill-palette-color="primary" id="text-0"></path></svg></g></svg></g></svg></g></svg></g></svg></g><defs></defs></svg><rect width="395.52" height="109.76775623268698" fill="none" stroke="none" visibility="hidden"></rect></g></svg></g></svg>